<svg width="70" height="70" viewBox="0 0 70 70" fill="none" xmlns="http://www.w3.org/2000/svg">
<path d="M68.0825 31.7039L37.936 1.55737C37.0701 0.69149 36.022 0.258545 34.7915 0.258545C33.561 0.258545 32.5129 0.69149 31.647 1.55737L25.3579 7.84644L33.356 15.7761C34.2674 15.4571 35.2131 15.4001 36.1929 15.6052C37.1727 15.8103 38.0272 16.2774 38.7563 17.0066C39.4855 17.7813 39.9526 18.6586 40.1577 19.6384C40.3628 20.6182 40.3058 21.5639 39.9868 22.4753L47.6431 30.1316C48.6001 29.8126 49.5685 29.7556 50.5483 29.9607C51.5282 30.1658 52.3826 30.6557 53.1118 31.4304C54.16 32.433 54.6841 33.6635 54.6841 35.1218C54.6841 36.5802 54.16 37.8334 53.1118 38.8816C52.1092 39.9298 50.8787 40.4539 49.4204 40.4539C47.9621 40.4539 46.7088 39.9298 45.6606 38.8816C44.8859 38.1069 44.396 37.1954 44.1909 36.1472C43.9858 35.099 44.0884 34.0964 44.4985 33.1394L37.3892 25.9617V44.7605C37.617 44.8972 37.8449 45.0453 38.0728 45.2048C38.3006 45.3643 38.5285 45.558 38.7563 45.7859C39.8045 46.7885 40.3286 48.0304 40.3286 49.5115C40.3286 50.9926 39.8045 52.2345 38.7563 53.2371C37.7082 54.2852 36.4549 54.8093 34.9966 54.8093C33.5382 54.8093 32.3078 54.2852 31.3052 53.2371C30.257 52.2345 29.6987 50.9926 29.6304 49.5115C29.562 48.0304 30.0519 46.7885 31.1001 45.7859C31.3735 45.5125 31.6356 45.2846 31.8862 45.1023C32.1369 44.92 32.3989 44.7605 32.6724 44.6238V25.6882C32.3989 25.5515 32.1369 25.3806 31.8862 25.1755C31.6356 24.9705 31.3735 24.754 31.1001 24.5261C30.3254 23.7514 29.8582 22.8285 29.6987 21.7576C29.5392 20.6866 29.6646 19.6726 30.0747 18.7156L22.2817 10.9226L1.63721 31.5671C0.771322 32.433 0.338379 33.4812 0.338379 34.7117C0.338379 35.9421 0.771322 36.9903 1.63721 37.8562L31.7837 68.0027C32.6496 68.8686 33.6978 69.3015 34.9282 69.3015C36.1587 69.3015 37.2069 68.8686 38.0728 68.0027L68.0825 37.9929C68.9484 37.127 69.3813 36.0789 69.3813 34.8484C69.3813 33.6179 68.9484 32.5697 68.0825 31.7039Z" fill="white"/>
</svg>
