<svg width="71" height="71" viewBox="0 0 71 71" fill="none" xmlns="http://www.w3.org/2000/svg">
<path d="M35.4502 3.58266C30.8929 3.58266 26.609 4.44855 22.5986 6.18032C18.5882 7.91209 15.0905 10.2705 12.1055 13.2555C9.12044 16.2405 6.76204 19.7383 5.03027 23.7487C3.2985 27.7591 2.43262 32.043 2.43262 36.6002C2.43262 40.2461 2.99089 43.721 4.10742 47.025C5.22396 50.3291 6.78483 53.3483 8.79004 56.0827C10.7952 58.817 13.1764 61.1982 15.9336 63.2262C18.6908 65.2542 21.71 66.8151 24.9912 67.9088C25.8115 68.0911 26.3926 67.9886 26.7344 67.6012C27.0762 67.2139 27.2471 66.7923 27.2471 66.3366C27.2471 65.9264 27.2471 65.1403 27.2471 63.9782C27.2471 62.8161 27.2471 61.5514 27.2471 60.1842C22.6442 61.1868 19.6364 60.7881 18.2236 58.9879C16.8109 57.1878 16.1045 56.2877 16.1045 56.2877C15.3298 54.3737 14.5208 53.0862 13.6777 52.4254C12.8346 51.7646 12.4131 51.4342 12.4131 51.4342C10.9092 50.4316 10.5788 49.8506 11.4219 49.6911C12.265 49.5316 12.6865 49.4518 12.6865 49.4518C14.3271 49.5885 15.5804 50.1924 16.4463 51.2633C17.3122 52.3343 17.7451 52.8698 17.7451 52.8698C19.2035 55.3763 20.9238 56.5612 22.9062 56.4245C24.8887 56.2877 26.3584 56.0143 27.3154 55.6042C27.4521 54.556 27.7142 53.6673 28.1016 52.9381C28.4889 52.209 28.9333 51.6165 29.4346 51.1608C27.6117 50.9785 25.8001 50.6139 24 50.067C22.1999 49.5202 20.582 48.6543 19.1465 47.4694C17.7109 46.2845 16.5602 44.678 15.6943 42.65C14.8285 40.6221 14.3955 38.0358 14.3955 34.8913C14.3955 33.0683 14.6917 31.4163 15.2842 29.9352C15.8766 28.4541 16.7197 27.1439 17.8135 26.0045C17.6312 25.5944 17.4147 24.6032 17.1641 23.0309C16.9134 21.4586 17.221 19.5332 18.0869 17.2545C18.0869 17.2545 18.8161 17.2887 20.2744 17.3571C21.7327 17.4254 24.0342 18.5306 27.1787 20.6725C28.5003 20.3079 29.8561 20.0345 31.2461 19.8522C32.6361 19.6699 34.0374 19.556 35.4502 19.5104C36.863 19.556 38.2643 19.6699 39.6543 19.8522C41.0443 20.0345 42.4001 20.3079 43.7217 20.6725C46.8662 18.5306 49.1676 17.4254 50.626 17.3571C52.0843 17.2887 52.8135 17.2545 52.8135 17.2545C53.6794 19.5332 53.987 21.4586 53.7363 23.0309C53.4857 24.6032 53.2692 25.5944 53.0869 26.0045C54.1807 27.1439 55.0238 28.4541 55.6162 29.9352C56.2087 31.4163 56.5049 33.0683 56.5049 34.8913C56.5049 38.0358 56.0719 40.6221 55.2061 42.65C54.3402 44.678 53.1895 46.2845 51.7539 47.4694C50.3184 48.6543 48.7005 49.5202 46.9004 50.067C45.1003 50.6139 43.2887 50.9785 41.4658 51.1608C42.0583 51.6621 42.571 52.4254 43.0039 53.4508C43.4368 54.4762 43.6533 55.7637 43.6533 57.3131C43.6533 59.5006 43.6533 61.4147 43.6533 63.0553C43.6533 64.6959 43.6533 65.7897 43.6533 66.3366C43.6533 66.7923 43.8242 67.2139 44.166 67.6012C44.5078 67.9886 45.0889 68.0911 45.9092 67.9088C49.1904 66.8151 52.2096 65.2542 54.9668 63.2262C57.724 61.1982 60.1051 58.817 62.1104 56.0827C64.1156 53.3483 65.6764 50.3291 66.793 47.025C67.9095 43.721 68.4678 40.2461 68.4678 36.6002C68.4678 32.043 67.6019 27.7591 65.8701 23.7487C64.1383 19.7383 61.7799 16.2405 58.7949 13.2555C55.8099 10.2705 52.3122 7.91209 48.3018 6.18032C44.2913 4.44855 40.0075 3.58266 35.4502 3.58266ZM14.9424 50.9557C14.8968 51.0469 14.8171 51.1038 14.7031 51.1266C14.5892 51.1494 14.4867 51.138 14.3955 51.0924C14.2588 51.0469 14.1562 50.9671 14.0879 50.8532C14.0195 50.7392 14.0081 50.6595 14.0537 50.6139C14.0993 50.5228 14.179 50.4658 14.293 50.443C14.4069 50.4202 14.5322 50.4316 14.6689 50.4772C14.7601 50.5228 14.8398 50.6025 14.9082 50.7165C14.9766 50.8304 14.988 50.9101 14.9424 50.9557ZM16.2412 52.4596C16.1956 52.5508 16.1045 52.5849 15.9678 52.5622C15.8311 52.5394 15.7171 52.4596 15.626 52.3229C15.4893 52.2318 15.4095 52.1178 15.3867 51.9811C15.3639 51.8444 15.3981 51.7305 15.4893 51.6393C15.5804 51.5482 15.6943 51.5254 15.8311 51.5709C15.9678 51.6165 16.0817 51.6849 16.1729 51.776C16.264 51.9127 16.321 52.0495 16.3438 52.1862C16.3665 52.3229 16.3324 52.414 16.2412 52.4596ZM17.54 54.3737C17.4489 54.4648 17.335 54.4762 17.1982 54.4079C17.0615 54.3395 16.9476 54.237 16.8564 54.1002C16.7197 53.9635 16.6514 53.8154 16.6514 53.6559C16.6514 53.4964 16.7197 53.3711 16.8564 53.2799C16.9476 53.2344 17.0615 53.2344 17.1982 53.2799C17.335 53.3255 17.4717 53.4167 17.6084 53.5534C17.6995 53.7357 17.7451 53.9066 17.7451 54.0661C17.7451 54.2256 17.6768 54.3281 17.54 54.3737ZM19.3857 56.2194C19.2946 56.3105 19.1579 56.3447 18.9756 56.3219C18.7933 56.2991 18.6338 56.2194 18.4971 56.0827C18.3604 55.9459 18.2692 55.7978 18.2236 55.6383C18.1781 55.4788 18.2008 55.3535 18.292 55.2624C18.3831 55.1712 18.5199 55.137 18.7021 55.1598C18.8844 55.1826 19.0439 55.2624 19.1807 55.3991C19.3174 55.5358 19.4085 55.6839 19.4541 55.8434C19.4997 56.0029 19.4769 56.1282 19.3857 56.2194ZM21.8467 57.3131C21.8011 57.4043 21.6986 57.484 21.5391 57.5524C21.3796 57.6208 21.2087 57.6094 21.0264 57.5182C20.7985 57.4726 20.639 57.3815 20.5479 57.2448C20.4567 57.1081 20.4339 56.9941 20.4795 56.903C20.4795 56.7663 20.5706 56.6637 20.7529 56.5954C20.9352 56.527 21.1175 56.5384 21.2998 56.6295C21.4821 56.6751 21.6188 56.7663 21.71 56.903C21.8011 57.0397 21.8467 57.1764 21.8467 57.3131ZM24.5127 57.4499C24.5127 57.5866 24.4443 57.7119 24.3076 57.8258C24.1709 57.9398 24.0114 57.9967 23.8291 57.9967C23.6468 57.9967 23.4759 57.9512 23.3164 57.86C23.1569 57.7689 23.0771 57.6549 23.0771 57.5182C23.0771 57.3815 23.1455 57.2676 23.2822 57.1764C23.4189 57.0853 23.6012 57.0169 23.8291 56.9713C24.0114 56.9713 24.1709 57.0283 24.3076 57.1422C24.4443 57.2562 24.5127 57.3587 24.5127 57.4499ZM27.042 57.0397C27.042 57.1764 26.985 57.3017 26.8711 57.4157C26.7572 57.5296 26.609 57.6094 26.4268 57.6549C26.2445 57.7005 26.0736 57.6891 25.9141 57.6208C25.7546 57.5524 25.652 57.4499 25.6064 57.3131C25.6064 57.1764 25.6634 57.0511 25.7773 56.9372C25.8913 56.8232 26.0394 56.7435 26.2217 56.6979C26.4495 56.6523 26.6318 56.6637 26.7686 56.7321C26.9053 56.8004 26.9964 56.903 27.042 57.0397Z" fill="white"/>
</svg>
