<svg width="62" height="63" viewBox="0 0 62 63" fill="none" xmlns="http://www.w3.org/2000/svg">
<path d="M0.644337 0.905029H61.8943V62.155H0.644337V0.905029ZM33.867 48.7566V29.0691H28.1248V48.6199C28.1248 51.491 26.8943 52.3113 25.117 52.3113C23.0662 52.3113 22.2459 50.9441 21.4256 49.3035L16.6404 52.1746C18.0076 55.0457 20.742 57.3699 25.2537 57.3699C30.449 57.3699 33.867 54.6355 33.867 48.7566ZM47.5389 57.3699C53.0076 57.3699 57.1092 54.6355 57.1092 49.4402C57.1092 44.655 54.3748 42.4675 49.4529 40.4167L47.949 39.7332C45.4881 38.6394 44.3943 37.9558 44.3943 36.1785C44.3943 34.8113 45.4881 33.7175 47.1287 33.7175C48.9061 33.7175 49.8631 34.5378 50.9568 36.1785L55.3318 33.3074C53.5545 30.0261 50.8201 28.7957 47.2654 28.7957C42.0701 28.7957 38.7889 32.0769 38.7889 36.3152C38.7889 41.1003 41.5232 43.2878 45.6248 45.0652L47.1287 45.6121C49.7264 46.8425 51.367 47.5261 51.367 49.4402C51.367 51.0808 49.7264 52.3113 47.4021 52.3113C44.5311 52.3113 43.0271 50.8074 41.7967 48.8933L37.0115 51.491C38.7889 54.9089 42.2068 57.3699 47.5389 57.3699Z" fill="white"/>
</svg>
