<svg width="71" height="71" viewBox="0 0 71 71" fill="none" xmlns="http://www.w3.org/2000/svg">
<g clip-path="url(#clip0_1_1599)">
<g clip-path="url(#clip1_1_1599)">
<g clip-path="url(#clip2_1_1599)">
<path d="M65.411 0.927246H17.218C14.5381 0.927246 12.3589 3.10646 12.3589 5.78631V11.0577H14.7442H34.6811H65.5141V53.9794C65.5141 54.0236 65.4699 54.0678 65.4258 54.0678H57.2537V58.8385H65.4258C68.1056 58.8385 70.2848 56.6593 70.2848 53.9794V5.78631C70.2701 3.10646 68.0909 0.927246 65.411 0.927246ZM47.3 8.62813C45.8275 8.62813 44.6349 7.43545 44.6349 5.96301C44.6349 5.31513 44.8852 4.7556 45.268 4.29914C45.7539 3.71017 46.4607 3.29788 47.3 3.29788C48.1246 3.29788 48.8313 3.69544 49.332 4.29914C49.7148 4.7556 49.9651 5.32985 49.9651 5.96301C49.9651 7.45017 48.7724 8.62813 47.3 8.62813ZM54.4561 8.62813C52.9836 8.62813 51.7909 7.43545 51.7909 5.96301C51.7909 5.31513 52.056 4.7556 52.4241 4.29914C52.91 3.71017 53.6168 3.29788 54.4561 3.29788C55.2806 3.29788 55.9874 3.69544 56.488 4.29914C56.8709 4.7556 57.1212 5.32985 57.1212 5.96301C57.1212 7.45017 55.9285 8.62813 54.4561 8.62813ZM61.6121 8.62813C60.1397 8.62813 58.947 7.43545 58.947 5.96301C58.947 5.31513 59.1973 4.7556 59.5802 4.29914C60.0661 3.71017 60.7729 3.29788 61.6121 3.29788C62.4367 3.29788 63.1582 3.69544 63.6441 4.29914C64.027 4.7556 64.2773 5.32985 64.2773 5.96301C64.2773 7.45017 63.0846 8.62813 61.6121 8.62813Z" fill="white"/>
<path d="M28.806 67.2314V61.5625H5.04074V22.4838C5.04074 21.4531 5.88003 20.5991 6.92547 20.5991H34.681C35.7118 20.5991 36.5658 21.4384 36.5658 22.4838V31.2007H41.3365V22.4838C41.3365 18.8174 38.3474 15.8284 34.681 15.8284H6.92547C3.24436 15.8431 0.27002 18.8174 0.27002 22.4838V63.9478C0.27002 67.6142 3.24436 70.6033 6.92547 70.6033H29.7925C29.2919 69.8082 28.806 68.748 28.806 67.2314ZM20.7959 68.8511C19.986 68.8511 19.2793 68.4682 18.7934 67.894C18.3958 67.4375 18.1308 66.8486 18.1308 66.186C18.1308 64.7135 19.3234 63.5208 20.7959 63.5208C22.2683 63.5208 23.461 64.7135 23.461 66.186C23.461 66.8486 23.196 67.4228 22.7984 67.894C22.3125 68.4682 21.6057 68.8511 20.7959 68.8511Z" fill="white"/>
<path d="M50.8484 34.1897H35.1963C33.3116 34.1897 31.7803 35.721 31.7803 37.6058V67.2461C31.7803 69.1308 33.3116 70.6474 35.1963 70.6474H50.8484C52.7332 70.6474 54.2645 69.1161 54.2645 67.2461V37.6058C54.2498 35.721 52.7184 34.1897 50.8484 34.1897ZM35.373 37.7677H50.6717V64.0067H35.373V37.7677ZM41.307 67.143C41.307 66.2006 42.0727 65.435 43.015 65.435C43.9574 65.435 44.7231 66.2006 44.7231 67.143C44.7231 68.0854 43.9574 68.851 43.015 68.851C42.0727 68.851 41.307 68.0854 41.307 67.143Z" fill="white"/>
</g>
</g>
</g>
<defs>
<clipPath id="clip0_1_1599">
<rect width="70" height="70" fill="white" transform="translate(0.27002 0.780029)"/>
</clipPath>
<clipPath id="clip1_1_1599">
<rect width="70" height="70" fill="white" transform="translate(0.27002 0.780029)"/>
</clipPath>
<clipPath id="clip2_1_1599">
<rect width="70" height="70" fill="white" transform="translate(0.27002 0.780029)"/>
</clipPath>
</defs>
</svg>
