<svg width="88" height="62" viewBox="0 0 88 62" fill="none" xmlns="http://www.w3.org/2000/svg">
<path d="M35.6344 32.8542L9.11094 59.5144C7.88047 60.7449 5.82969 60.7449 4.4625 59.5144L1.45469 56.3699C0.0874977 55.1394 0.0874977 53.0886 1.31797 51.7214L22.5094 30.53L1.31797 9.47534C0.0874977 8.10815 0.0874977 6.05737 1.45469 4.8269L4.4625 1.68237C5.82969 0.451904 7.88047 0.451904 9.11094 1.68237L35.6344 28.3425C37.0016 29.573 37.0016 31.6238 35.6344 32.8542ZM87.9977 57.8738C87.9977 59.7878 86.4937 61.155 84.7164 61.155H43.1539C41.2398 61.155 39.8727 59.7878 39.8727 57.8738V53.4988C39.8727 51.7214 41.2398 50.2175 43.1539 50.2175H84.7164C86.4937 50.2175 87.9977 51.7214 87.9977 53.4988V57.8738Z" fill="white"/>
</svg>
